<svg id="svg" version="1.1" xmlns="http://www.w3.org/2000/svg" xmlns:xlink="http://www.w3.org/1999/xlink" width="400" height="400" viewBox="0, 0, 400,400"><g id="svgg"><path id="path0" d="M230.800 141.410 C 208.772 144.340,199.193 153.758,199.076 172.600 C 198.967 190.205,207.785 200.278,229.600 207.468 C 241.352 211.341,245.533 213.651,245.644 216.331 C 245.843 221.136,244.199 222.400,237.748 222.400 C 231.976 222.400,230.211 221.190,229.286 216.600 L 228.964 215.000 214.582 215.000 L 200.200 215.000 200.094 227.912 L 199.989 240.824 201.694 241.550 C 205.039 242.973,208.947 244.062,217.000 245.816 C 228.840 248.394,248.461 248.680,258.800 246.424 C 272.242 243.492,282.463 235.221,284.833 225.357 C 288.196 211.357,286.079 200.218,278.606 192.592 C 273.105 186.979,268.050 184.376,252.200 178.997 C 240.455 175.010,238.513 173.521,239.657 169.379 C 241.151 163.967,253.994 165.565,255.169 171.310 L 255.433 172.600 268.522 172.705 L 281.612 172.811 281.506 160.905 L 281.400 149.000 279.000 147.720 C 268.756 142.257,246.416 139.333,230.800 141.410 M126.000 153.400 L 126.000 164.000 128.920 164.000 C 133.182 164.000,132.800 161.005,132.800 194.400 C 132.800 227.795,133.182 224.800,128.920 224.800 L 126.000 224.800 126.000 235.357 C 126.000 244.615,126.078 245.944,126.633 246.157 C 127.476 246.481,196.549 246.471,197.393 246.147 C 197.887 245.958,197.649 245.715,196.440 245.173 C 194.284 244.208,194.362 244.962,194.489 226.200 L 194.600 209.800 204.995 209.600 C 214.650 209.414,215.400 209.348,215.530 208.670 C 215.667 207.958,214.589 206.400,213.959 206.400 C 213.785 206.400,212.568 205.770,211.254 205.000 L 208.865 203.600 197.633 203.600 L 186.400 203.600 186.400 213.720 C 186.400 221.058,186.268 223.972,185.920 224.320 C 185.579 224.661,183.145 224.800,177.514 224.800 L 169.588 224.800 169.694 212.700 L 169.800 200.600 175.509 200.489 L 181.218 200.378 181.109 193.089 L 181.000 185.800 175.293 185.689 L 169.587 185.578 169.693 174.889 L 169.800 164.200 177.548 164.091 C 187.361 163.953,186.400 162.916,186.400 173.649 L 186.400 182.400 190.447 182.400 L 194.493 182.400 194.212 181.300 C 193.564 178.757,193.517 168.240,194.141 164.969 C 195.870 155.900,199.810 149.189,206.139 144.529 L 208.488 142.800 167.244 142.800 L 126.000 142.800 126.000 153.400 " stroke="none" fill="#dbdbdb" fill-rule="evenodd"></path><path id="path1" d="M0.000 200.000 L 0.000 400.000 200.000 400.000 L 400.000 400.000 400.000 200.000 L 400.000 0.000 200.000 0.000 L 0.000 0.000 0.000 200.000 M251.800 135.607 C 265.286 136.728,275.366 139.404,283.800 144.100 L 287.000 145.882 287.000 162.041 L 287.000 178.200 277.200 178.400 L 267.400 178.600 270.400 180.145 C 284.501 187.407,290.964 197.014,291.830 212.000 C 292.789 228.573,285.312 241.481,270.800 248.308 C 255.051 255.717,225.260 255.346,201.892 247.450 L 198.783 246.400 162.185 246.400 L 125.587 246.400 125.694 235.300 L 125.800 224.200 128.900 224.083 L 132.000 223.966 132.000 194.400 L 132.000 164.834 128.900 164.717 L 125.800 164.600 125.694 153.500 L 125.587 142.400 167.205 142.400 L 208.823 142.400 211.194 141.203 C 220.209 136.652,236.825 134.362,251.800 135.607 M170.183 165.299 C 170.074 165.583,170.033 170.132,170.093 175.408 L 170.200 185.000 175.900 185.111 L 181.600 185.222 181.600 193.011 L 181.600 200.800 176.300 200.806 C 169.285 200.814,169.969 199.513,170.094 212.628 L 170.200 223.800 177.900 223.909 L 185.600 224.017 185.600 213.609 L 185.600 203.200 196.900 203.187 L 208.200 203.175 207.000 202.296 C 201.508 198.277,196.652 191.343,195.026 185.200 L 194.550 183.400 190.175 183.200 L 185.800 183.000 185.600 174.000 L 185.400 165.000 177.891 164.891 C 172.043 164.806,170.338 164.897,170.183 165.299 M216.000 208.600 C 216.000 209.029,216.426 209.196,217.500 209.184 L 219.000 209.169 217.654 208.584 C 215.996 207.865,216.000 207.865,216.000 208.600 M234.864 215.836 C 234.964 216.355,235.476 216.664,236.518 216.833 C 238.331 217.128,238.840 216.638,237.300 216.080 C 236.695 215.861,235.867 215.547,235.459 215.383 C 234.875 215.146,234.749 215.242,234.864 215.836 " stroke="none" fill="#fc3434" fill-rule="evenodd"></path><path id="path2" d="M231.400 136.442 C 206.618 140.012,196.299 148.758,194.228 167.949 C 192.269 186.088,199.713 199.349,216.284 207.245 C 218.311 208.210,219.976 209.132,219.984 209.294 C 219.993 209.456,214.465 209.636,207.700 209.694 L 195.400 209.800 195.400 226.966 L 195.400 244.131 196.600 244.793 C 200.706 247.059,212.866 250.347,221.800 251.609 C 223.560 251.857,225.975 252.227,227.167 252.430 C 230.238 252.954,251.622 252.897,254.576 252.357 C 273.705 248.858,284.127 241.591,289.221 228.200 C 289.507 227.449,289.716 226.605,290.775 221.923 C 291.612 218.225,291.310 208.536,290.225 204.258 C 287.457 193.347,281.731 186.618,270.233 180.767 C 263.960 177.574,263.860 177.630,276.069 177.507 L 286.600 177.400 286.705 162.231 C 286.827 144.516,287.346 146.372,281.472 143.483 C 274.255 139.932,266.422 137.829,255.071 136.395 C 251.322 135.922,234.786 135.955,231.400 136.442 M257.291 141.213 C 262.305 142.109,264.249 142.491,266.800 143.080 C 273.768 144.689,281.725 148.123,282.149 149.704 C 282.633 151.512,282.427 172.213,281.920 172.720 C 281.566 173.074,278.003 173.200,268.372 173.200 L 255.304 173.200 254.792 171.371 C 252.982 164.907,240.000 164.402,240.000 170.795 C 240.000 173.910,241.863 175.126,251.615 178.376 C 254.357 179.290,256.960 180.198,257.400 180.393 C 257.840 180.588,259.370 181.143,260.800 181.626 C 272.867 185.701,282.400 193.650,284.846 201.676 C 286.457 206.963,286.529 207.491,286.525 214.000 C 286.514 232.008,277.851 242.257,258.800 246.800 C 253.791 247.994,251.276 248.187,240.800 248.176 C 229.562 248.165,226.238 247.867,216.000 245.952 C 208.511 244.551,200.148 241.801,199.836 240.637 C 199.484 239.326,199.574 215.460,199.933 214.895 C 200.184 214.500,203.434 214.413,214.827 214.495 L 229.400 214.600 229.618 216.494 C 230.470 223.908,245.600 224.681,245.600 217.311 C 245.600 214.130,242.022 211.977,230.400 208.166 C 228.750 207.625,227.087 207.006,226.705 206.791 C 226.323 206.576,225.833 206.400,225.615 206.400 C 224.394 206.400,215.993 202.134,212.200 199.587 C 193.186 186.820,193.769 155.508,213.200 145.920 C 222.870 141.148,244.191 138.872,257.291 141.213 M249.700 171.757 C 251.103 172.822,250.173 173.178,248.283 172.300 C 247.691 172.025,247.205 171.665,247.203 171.500 C 247.198 171.006,248.948 171.186,249.700 171.757 M238.371 215.949 C 240.539 216.978,240.401 217.600,238.007 217.600 C 235.426 217.600,234.400 217.075,234.400 215.754 C 234.400 214.598,235.653 214.659,238.371 215.949 " stroke="none" fill="#0a0909" fill-rule="evenodd"></path><path id="path3" d="M234.200 135.641 C 218.741 136.922,208.309 141.117,201.560 148.765 C 199.390 151.224,195.999 156.881,196.023 158.000 C 196.031 158.330,196.553 157.485,197.183 156.123 C 203.563 142.340,218.118 136.013,243.471 136.003 C 260.970 135.996,280.894 140.765,285.977 146.176 C 286.794 147.046,286.808 147.342,286.705 162.231 L 286.600 177.400 276.069 177.507 C 263.860 177.630,263.960 177.574,270.233 180.767 C 281.731 186.618,287.457 193.347,290.225 204.258 C 291.310 208.536,291.612 218.225,290.775 221.923 C 289.716 226.605,289.507 227.449,289.221 228.200 C 284.127 241.591,273.705 248.858,254.576 252.357 C 251.622 252.897,230.238 252.954,227.167 252.430 C 225.975 252.227,223.560 251.857,221.800 251.609 C 214.577 250.589,208.163 249.049,201.637 246.768 C 199.787 246.122,198.193 245.674,198.094 245.773 C 197.754 246.112,200.478 247.107,207.600 249.246 C 224.668 254.370,249.228 255.024,264.000 250.747 C 282.811 245.301,292.941 231.198,291.830 212.000 C 290.964 197.014,284.501 187.407,270.400 180.145 L 267.400 178.600 277.200 178.400 L 287.000 178.200 287.000 162.041 L 287.000 145.882 283.800 144.100 C 271.593 137.303,252.810 134.099,234.200 135.641 M240.319 140.698 C 242.144 140.772,245.024 140.772,246.719 140.697 C 248.414 140.622,246.920 140.561,243.400 140.562 C 239.880 140.562,238.494 140.624,240.319 140.698 M229.600 141.221 C 228.969 141.437,229.632 141.478,231.400 141.332 C 232.940 141.205,234.275 141.034,234.367 140.951 C 234.696 140.653,230.579 140.887,229.600 141.221 M251.633 140.948 C 251.725 141.029,253.150 141.199,254.800 141.325 C 256.646 141.466,257.415 141.425,256.800 141.217 C 255.826 140.889,251.301 140.653,251.633 140.948 M224.600 142.000 C 223.506 142.470,225.333 142.470,226.800 142.000 C 227.775 141.688,227.770 141.679,226.600 141.668 C 225.940 141.662,225.040 141.811,224.600 142.000 M259.800 142.000 C 260.460 142.168,261.360 142.314,261.800 142.325 L 262.600 142.344 261.800 142.000 C 261.360 141.811,260.460 141.665,259.800 141.675 L 258.600 141.695 259.800 142.000 M221.400 142.800 C 220.381 143.238,221.432 143.238,222.800 142.800 C 223.604 142.543,223.643 142.477,223.000 142.468 C 222.560 142.462,221.840 142.611,221.400 142.800 M264.000 142.800 C 264.550 142.976,265.360 143.126,265.800 143.132 L 266.600 143.144 265.800 142.800 C 265.360 142.611,264.550 142.462,264.000 142.468 L 263.000 142.480 264.000 142.800 M267.800 143.600 C 268.240 143.789,268.870 143.944,269.200 143.944 C 269.578 143.944,269.504 143.817,269.000 143.600 C 268.560 143.411,267.930 143.256,267.600 143.256 C 267.222 143.256,267.296 143.383,267.800 143.600 M215.653 144.653 C 214.913 144.976,214.392 145.325,214.495 145.428 C 214.599 145.532,215.475 145.266,216.442 144.837 C 217.409 144.408,217.930 144.058,217.600 144.061 C 217.270 144.063,216.394 144.330,215.653 144.653 M210.296 147.619 C 208.093 149.079,203.871 153.504,202.960 155.308 C 202.183 156.849,202.474 156.556,204.806 153.452 C 206.399 151.334,208.937 148.974,211.618 147.121 C 213.351 145.923,212.205 146.355,210.296 147.619 M279.000 147.711 L 281.400 149.000 281.506 160.911 L 281.612 172.821 268.406 172.711 C 261.142 172.650,255.200 172.735,255.200 172.900 C 255.200 173.438,281.378 173.262,281.920 172.720 C 282.422 172.218,282.636 151.520,282.157 149.736 C 281.949 148.961,277.902 146.380,276.944 146.411 C 276.755 146.417,277.680 147.002,279.000 147.711 M194.600 162.400 C 194.448 163.091,194.414 163.747,194.524 163.857 C 194.634 163.967,194.848 163.491,195.000 162.800 C 195.152 162.109,195.186 161.453,195.076 161.343 C 194.966 161.233,194.752 161.709,194.600 162.400 M199.400 164.000 C 199.248 164.691,199.214 165.347,199.324 165.457 C 199.434 165.567,199.648 165.091,199.800 164.400 C 199.952 163.709,199.986 163.053,199.876 162.943 C 199.766 162.833,199.552 163.309,199.400 164.000 M193.886 166.200 C 193.733 167.080,193.631 168.790,193.658 170.000 C 193.703 172.042,193.731 171.971,194.053 169.000 C 194.434 165.485,194.325 163.664,193.886 166.200 M241.325 167.181 C 238.517 168.893,238.819 172.869,241.906 174.827 C 243.760 176.002,247.972 177.761,248.255 177.478 C 248.338 177.396,247.122 176.825,245.555 176.210 C 238.977 173.630,237.668 168.436,243.200 166.869 C 244.369 166.537,244.435 166.466,243.600 166.438 C 243.050 166.419,242.026 166.753,241.325 167.181 M249.800 166.800 C 250.996 167.314,251.995 167.314,251.200 166.800 C 250.870 166.587,250.240 166.422,249.800 166.434 L 249.000 166.456 249.800 166.800 M198.657 168.300 C 198.328 170.289,198.373 175.796,198.735 177.800 C 198.911 178.778,199.031 176.949,199.042 173.100 C 199.062 166.331,199.036 166.006,198.657 168.300 M253.035 168.296 C 253.710 168.972,254.455 170.126,254.690 170.862 C 254.971 171.738,255.132 171.924,255.158 171.400 C 255.211 170.313,253.848 168.161,252.725 167.560 C 251.990 167.167,252.052 167.313,253.035 168.296 M247.203 171.500 C 247.205 171.665,247.691 172.025,248.283 172.300 C 250.173 173.178,251.103 172.822,249.700 171.757 C 248.948 171.186,247.198 171.006,247.203 171.500 M193.706 175.800 C 193.700 177.340,193.832 179.140,194.000 179.800 C 194.426 181.475,194.436 178.788,194.015 175.400 L 193.718 173.000 193.706 175.800 M249.200 178.000 C 249.530 178.213,250.070 178.388,250.400 178.388 C 250.933 178.388,250.933 178.345,250.400 178.000 C 250.070 177.787,249.530 177.612,249.200 177.612 C 248.667 177.612,248.667 177.655,249.200 178.000 M251.600 178.800 C 251.930 179.013,252.470 179.188,252.800 179.188 C 253.333 179.188,253.333 179.145,252.800 178.800 C 252.470 178.587,251.930 178.412,251.600 178.412 C 251.067 178.412,251.067 178.455,251.600 178.800 M254.000 179.600 C 254.330 179.813,254.870 179.988,255.200 179.988 C 255.733 179.988,255.733 179.945,255.200 179.600 C 254.870 179.387,254.330 179.212,254.000 179.212 C 253.467 179.212,253.467 179.255,254.000 179.600 M199.268 180.800 C 199.262 181.350,199.411 182.160,199.600 182.600 L 199.944 183.400 199.932 182.600 C 199.926 182.160,199.776 181.350,199.600 180.800 L 199.280 179.800 199.268 180.800 M194.411 182.200 C 194.399 189.300,203.002 200.806,211.600 205.188 C 213.030 205.917,212.215 205.228,209.000 202.989 C 201.829 197.994,195.229 188.683,195.194 183.513 C 195.191 183.011,195.013 182.330,194.800 182.000 C 194.479 181.503,194.412 181.537,194.411 182.200 M260.433 181.765 C 260.525 181.856,262.040 182.499,263.800 183.194 C 265.560 183.889,267.792 184.898,268.761 185.435 C 269.729 185.972,270.602 186.331,270.701 186.232 C 270.800 186.133,269.824 185.519,268.532 184.867 C 264.664 182.914,259.659 180.997,260.433 181.765 M200.012 184.000 C 200.012 184.330,200.187 184.870,200.400 185.200 C 200.745 185.733,200.788 185.733,200.788 185.200 C 200.788 184.870,200.613 184.330,200.400 184.000 C 200.055 183.467,200.012 183.467,200.012 184.000 M200.800 186.138 C 200.800 186.654,202.495 190.011,202.874 190.246 C 203.083 190.375,202.771 189.518,202.179 188.340 C 201.049 186.090,200.800 185.693,200.800 186.138 M271.986 187.088 C 277.090 190.772,278.373 191.940,281.333 195.600 C 282.145 196.605,282.328 196.718,281.980 196.000 C 281.231 194.455,274.724 188.309,272.757 187.288 C 271.709 186.745,271.398 186.664,271.986 187.088 M203.624 191.600 C 205.377 195.055,218.924 204.862,221.846 204.791 C 222.041 204.787,220.352 203.810,218.093 202.622 C 211.871 199.347,207.744 196.197,204.440 192.200 C 203.653 191.248,203.323 191.005,203.624 191.600 M283.531 199.607 C 284.116 200.931,284.652 201.845,284.720 201.639 C 284.845 201.264,282.929 197.200,282.627 197.200 C 282.539 197.200,282.946 198.283,283.531 199.607 M284.834 202.800 C 284.846 203.130,285.011 203.760,285.200 204.200 L 285.544 205.000 285.566 204.200 C 285.578 203.760,285.413 203.130,285.200 202.800 C 284.855 202.267,284.815 202.267,284.834 202.800 M222.400 204.995 C 222.400 205.261,225.190 206.407,225.749 206.370 C 225.997 206.354,225.480 206.007,224.600 205.600 C 222.909 204.817,222.400 204.677,222.400 204.995 M285.675 206.000 C 285.686 206.550,285.832 207.540,286.000 208.200 L 286.305 209.400 286.325 208.000 C 286.335 207.230,286.189 206.240,286.000 205.800 C 285.688 205.074,285.658 205.093,285.675 206.000 M214.400 206.602 C 214.400 206.900,217.859 208.800,218.402 208.800 C 218.694 208.800,218.823 208.690,218.688 208.555 C 218.331 208.198,214.400 206.407,214.400 206.602 M228.800 207.600 C 229.130 207.813,229.670 207.988,230.000 207.988 C 230.533 207.988,230.533 207.945,230.000 207.600 C 229.670 207.387,229.130 207.212,228.800 207.212 C 228.267 207.212,228.267 207.255,228.800 207.600 M231.200 208.400 C 231.530 208.613,232.070 208.788,232.400 208.788 C 232.933 208.788,232.933 208.745,232.400 208.400 C 232.070 208.187,231.530 208.012,231.200 208.012 C 230.667 208.012,230.667 208.055,231.200 208.400 M217.400 209.200 L 215.800 209.486 217.900 209.543 C 219.071 209.575,220.000 209.423,220.000 209.200 C 220.000 208.767,219.816 208.767,217.400 209.200 M234.600 209.571 C 235.480 209.994,236.470 210.339,236.800 210.338 C 237.484 210.334,235.505 209.425,234.000 209.050 C 233.450 208.914,233.720 209.148,234.600 209.571 M194.667 209.867 C 194.330 210.203,194.312 242.906,194.648 243.782 C 194.911 244.465,197.138 245.796,197.467 245.466 C 197.574 245.360,197.152 245.029,196.530 244.731 L 195.400 244.189 195.400 226.894 C 195.400 217.382,195.295 209.600,195.167 209.600 C 195.038 209.600,194.813 209.720,194.667 209.867 M286.542 213.800 C 286.541 215.780,286.608 216.640,286.692 215.712 C 286.776 214.784,286.777 213.164,286.695 212.112 C 286.612 211.060,286.543 211.820,286.542 213.800 M241.261 212.206 C 242.284 212.739,243.679 213.852,244.361 214.679 C 245.042 215.506,245.600 215.975,245.600 215.722 C 245.600 214.661,241.003 211.143,239.716 211.219 C 239.542 211.229,240.237 211.673,241.261 212.206 M199.845 215.028 C 199.710 215.379,199.641 221.276,199.692 228.133 L 199.783 240.600 199.992 227.800 L 200.200 215.000 214.596 215.000 L 228.992 215.000 229.265 216.200 C 229.531 217.368,229.536 217.363,229.469 216.000 L 229.400 214.600 214.745 214.495 C 201.641 214.401,200.063 214.458,199.845 215.028 M234.400 215.754 C 234.400 217.075,235.426 217.600,238.007 217.600 C 240.401 217.600,240.539 216.978,238.371 215.949 C 235.653 214.659,234.400 214.598,234.400 215.754 M237.300 216.080 C 238.840 216.638,238.331 217.128,236.518 216.833 C 235.476 216.664,234.964 216.355,234.864 215.836 C 234.749 215.242,234.875 215.146,235.459 215.383 C 235.867 215.547,236.695 215.861,237.300 216.080 M229.601 218.120 C 229.594 219.770,232.878 222.429,234.854 222.373 C 235.508 222.355,235.271 222.181,234.087 221.812 C 232.072 221.183,231.331 220.627,230.337 219.000 C 229.933 218.340,229.602 217.944,229.601 218.120 M245.021 219.534 C 244.718 220.490,243.389 221.411,241.552 221.939 C 240.808 222.153,240.521 222.344,240.913 222.364 C 242.730 222.456,246.319 219.785,245.491 218.957 C 245.371 218.838,245.160 219.097,245.021 219.534 M285.847 220.537 C 285.678 221.602,285.632 222.565,285.744 222.678 C 286.036 222.969,286.505 220.224,286.314 219.340 C 286.227 218.933,286.016 219.471,285.847 220.537 M285.000 224.400 C 284.848 225.091,284.814 225.747,284.924 225.857 C 285.034 225.967,285.248 225.491,285.400 224.800 C 285.552 224.109,285.586 223.453,285.476 223.343 C 285.366 223.233,285.152 223.709,285.000 224.400 M283.080 229.680 C 282.692 230.356,282.457 230.991,282.558 231.091 C 282.659 231.192,283.038 230.701,283.400 230.000 C 284.257 228.343,283.997 228.083,283.080 229.680 M281.087 233.100 C 279.850 234.921,277.617 237.292,275.200 239.351 C 273.795 240.547,273.707 240.682,274.800 239.963 C 276.719 238.699,281.026 234.297,281.792 232.815 C 282.651 231.154,282.318 231.289,281.087 233.100 M200.000 241.152 C 200.000 241.496,202.784 242.549,203.034 242.299 C 203.130 242.203,202.487 241.841,201.604 241.495 C 200.722 241.148,200.000 240.994,200.000 241.152 M270.303 242.298 C 268.820 243.091,267.677 243.811,267.764 243.897 C 267.957 244.091,271.507 242.291,272.600 241.445 C 273.804 240.513,273.276 240.709,270.303 242.298 M206.400 243.600 C 206.730 243.813,207.270 243.988,207.600 243.988 C 208.133 243.988,208.133 243.945,207.600 243.600 C 207.270 243.387,206.730 243.212,206.400 243.212 C 205.867 243.212,205.867 243.255,206.400 243.600 M209.200 244.400 C 209.530 244.613,210.160 244.778,210.600 244.766 L 211.400 244.744 210.600 244.400 C 209.404 243.886,208.405 243.886,209.200 244.400 M212.400 245.200 C 212.730 245.413,213.450 245.578,214.000 245.566 C 214.916 245.546,214.933 245.515,214.200 245.200 C 213.016 244.691,211.613 244.691,212.400 245.200 M263.400 245.200 L 262.600 245.544 263.400 245.566 C 263.840 245.578,264.470 245.413,264.800 245.200 C 265.595 244.686,264.596 244.686,263.400 245.200 M216.200 246.000 C 216.640 246.189,217.450 246.338,218.000 246.332 L 219.000 246.320 218.000 246.000 C 217.450 245.824,216.640 245.674,216.200 245.668 L 215.400 245.656 216.200 246.000 M260.600 246.000 L 259.800 246.344 260.600 246.366 C 261.040 246.378,261.670 246.213,262.000 246.000 C 262.795 245.486,261.796 245.486,260.600 246.000 M220.800 246.800 C 221.350 246.976,222.340 247.117,223.000 247.113 L 224.200 247.105 223.000 246.800 C 222.340 246.632,221.350 246.491,220.800 246.487 L 219.800 246.480 220.800 246.800 M257.000 246.800 C 256.267 247.115,256.284 247.146,257.200 247.166 C 257.750 247.178,258.470 247.013,258.800 246.800 C 259.587 246.291,258.184 246.291,257.000 246.800 M226.600 247.578 C 227.805 247.907,232.279 248.132,231.967 247.849 C 231.875 247.765,230.360 247.597,228.600 247.474 C 226.638 247.337,225.864 247.378,226.600 247.578 M251.200 247.600 L 249.400 247.880 251.400 247.900 C 252.500 247.911,253.850 247.776,254.400 247.600 C 255.725 247.176,253.930 247.176,251.200 247.600 M237.900 248.298 C 239.715 248.372,242.685 248.372,244.500 248.298 C 246.315 248.223,244.830 248.163,241.200 248.163 C 237.570 248.163,236.085 248.223,237.900 248.298 " stroke="none" fill="#951e1e" fill-rule="evenodd"></path><path id="path4" d="M125.694 153.500 L 125.800 164.600 128.900 164.717 L 132.000 164.834 132.000 194.400 L 132.000 223.966 128.900 224.083 L 125.800 224.200 125.694 235.300 C 125.594 245.693,125.632 246.398,126.294 246.368 C 126.712 246.350,126.796 246.255,126.500 246.135 C 126.118 245.981,126.000 243.446,126.000 235.367 L 126.000 224.800 128.920 224.800 C 133.182 224.800,132.800 227.795,132.800 194.400 C 132.800 161.005,133.182 164.000,128.920 164.000 L 126.000 164.000 126.000 153.402 L 126.000 142.804 167.500 142.700 L 209.000 142.596 167.294 142.498 L 125.587 142.400 125.694 153.500 M169.867 164.267 C 169.720 164.413,169.600 169.268,169.600 175.056 L 169.600 185.578 175.300 185.689 L 181.000 185.800 181.109 193.089 L 181.218 200.378 175.509 200.489 L 169.800 200.600 169.694 212.700 L 169.588 224.800 177.514 224.800 C 183.145 224.800,185.579 224.661,185.920 224.320 C 186.268 223.972,186.400 221.059,186.400 213.726 L 186.400 203.612 197.700 203.500 L 209.000 203.387 197.300 203.294 L 185.600 203.200 185.600 213.609 L 185.600 224.017 177.900 223.909 L 170.200 223.800 170.094 212.628 C 169.969 199.513,169.285 200.814,176.300 200.806 L 181.600 200.800 181.600 193.011 L 181.600 185.222 175.900 185.111 L 170.200 185.000 170.200 175.000 L 170.200 165.000 177.800 165.000 L 185.400 165.000 185.600 174.000 L 185.800 183.000 190.100 183.114 C 192.867 183.187,194.400 183.080,194.400 182.814 C 194.400 182.556,192.887 182.400,190.400 182.400 L 186.400 182.400 186.400 173.680 C 186.400 167.431,186.264 164.824,185.920 164.480 C 185.401 163.961,170.372 163.762,169.867 164.267 M215.400 208.438 C 215.400 209.077,215.535 209.600,215.700 209.600 C 215.865 209.600,216.000 209.161,216.000 208.624 C 216.000 208.087,215.865 207.564,215.700 207.462 C 215.535 207.360,215.400 207.799,215.400 208.438 " stroke="none" fill="#ec8484" fill-rule="evenodd"></path></g></svg>